PathFileType	4	(X/Y/Z)	C:/Users/opensim2020/Desktop/walking_exp_matlab/subject02_walking07_straight_02.trc																																																																																																																																																				
DataRate	CameraRate	NumFrames	NumMarkers	Units	OrigDataRate	OrigDataStartFrame	OrigNumFrames																																																																																																																																																
100	100	4	50	mm	100	1488	210																																																																																																																																																
Frame#	Time	LFHD			RFHD			LBHD			RBHD			C7			T10			CLAV			STRN			RBAK			LSHO			LUPA			LELB			LFRM			LWRA			LWRB			LFIN			RSHO			RUPA			RELB			RFRM			RWRA			RWRB			RFIN			LASI			RASI			LPSI			RPSI			LTHI			LKNE			LTIB			LANK			LHEE			LTOE			RTHI			RKNE			RTIB			RANK			RHEE			RTOE			*39			*40			*41			*42			*43			*44			*45			*46			*47			*48			*49		
		X1	Y1	Z1	X2	Y2	Z2	X3	Y3	Z3	X4	Y4	Z4	X5	Y5	Z5	X6	Y6	Z6	X7	Y7	Z7	X8	Y8	Z8	X9	Y9	Z9	X10	Y10	Z10	X11	Y11	Z11	X12	Y12	Z12	X13	Y13	Z13	X14	Y14	Z14	X15	Y15	Z15	X16	Y16	Z16	X17	Y17	Z17	X18	Y18	Z18	X19	Y19	Z19	X20	Y20	Z20	X21	Y21	Z21	X22	Y22	Z22	X23	Y23	Z23	X24	Y24	Z24	X25	Y25	Z25	X26	Y26	Z26	X27	Y27	Z27	X28	Y28	Z28	X29	Y29	Z29	X30	Y30	Z30	X31	Y31	Z31	X32	Y32	Z32	X33	Y33	Z33	X34	Y34	Z34	X35	Y35	Z35	X36	Y36	Z36	X37	Y37	Z37	X38	Y38	Z38	X39	Y39	Z39	X40	Y40	Z40	X41	Y41	Z41	X42	Y42	Z42	X43	Y43	Z43	X44	Y44	Z44	X45	Y45	Z45	X46	Y46	Z46	X47	Y47	Z47	X48	Y48	Z48	X49	Y49	Z49	X50	Y50	Z50
																																																																																																																																																							
158	1.57	691.0954	1721.29639	882.63226	690.25464	1711.99487	1025.78589	553.65564	1660.18408	879.15875	540.43433	1650.448	1022.2417	494.82782	1512.60034	964.82715	466.11584	1231.48816	977.87134	640.42468	1457.27136	949.17743	710.17633	1293.62097	971.75085	453.77176	1335.14478	1041.08154	552.70282	1478.73682	783.73523	539.8421	1275.48999	708.14838	540.66467	1135.03931	699.73126	554.66211	1004.75183	683.09485	621.45245	881.77747	699.27258	569.28278	882.90613	677.22766	589.43219	820.53656	667.04846	581.03119	1498.65112	1148.104	592.54034	1307.16052	1239.87476	641.45123	1168.07654	1260.43274	705.14813	1065.02588	1277.06689	785.78717	957.04358	1251.90759	747.87744	942.7597	1291.52368	800.92926	891.72028	1286.21167	732.11047	994.92181	854.92542	703.97845	967.27209	1106.50378	512.28601	1023.11047	910.26196	495.47064	1017.30475	1024.79834	710.73022	680.13239	797.2262	697.9942	475.60391	834.51294	655.47913	283.79587	840.42883	668.00006	65.35505	888.28186	634.35284	38.73664	942.66412	824.53412	29.82401	874.66937	598.49524	664.51752	1186.70471	592.86627	464.94662	1188.95801	444.45749	356.96103	1176.73022	308.28021	225.25302	1129.31982	265.26007	203.5685	1060.01965	356.99307	73.09486	1166.17065	597.02722	1802.23694	967.57202	NaN	NaN	NaN	NaN	NaN	NaN	NaN	NaN	NaN	NaN	NaN	NaN	NaN	NaN	NaN	NaN	NaN	NaN	NaN	NaN	NaN	NaN	NaN	NaN	NaN	NaN	NaN	NaN	NaN	NaN
159	1.58	699.6424	1722.60046	881.06116	699.07532	1713.22876	1024.44934	562.66742	1661.48206	877.96136	549.32385	1651.67395	1020.95868	503.70874	1513.79846	963.11914	474.70715	1232.7594	975.22363	649.03326	1458.36462	948.08478	718.47034	1294.48035	970.48358	462.18991	1336.22925	1037.82373	562.33002	1480.43225	782.24109	552.66919	1276.92297	705.83911	555.26398	1136.56323	696.3244	573.61865	1006.51251	680.1123	643.50549	886.01453	697.18817	591.40833	885.0498	674.93994	614.80597	823.8172	664.50226	588.75732	1499.31201	1146.83679	599.24603	1307.44519	1237.72937	647.80157	1168.19482	1258.42212	710.01105	1064.43054	1275.53271	788.91754	955.01697	1250.5094	751.15863	941.53632	1290.3175	802.97839	889.29102	1284.75037	741.3291	994.80994	853.0235	711.1991	968.72687	1105.79431	520.3728	1024.50464	907.75195	503.056	1018.57971	1021.94373	715.7702	680.17163	796.42761	700.40448	475.41138	833.73633	656.55566	283.98141	840.09564	667.95685	65.37005	888.31085	634.31494	38.80108	942.66241	824.44049	29.76931	874.70404	612.133	666.15112	1186.66028	610.4823	467.14258	1189.04285	462.06329	358.86105	1175.55139	326.76297	226.40268	1127.62976	284.64746	202.60056	1058.05017	376.37451	76.71012	1170.26599	605.81525	1803.50562	966.16614	NaN	NaN	NaN	NaN	NaN	NaN	NaN	NaN	NaN	NaN	NaN	NaN	NaN	NaN	NaN	NaN	NaN	NaN	NaN	NaN	NaN	NaN	NaN	NaN	NaN	NaN	NaN	NaN	NaN	NaN
160	1.59	708.6427	1723.5144	879.93335	708.09033	1714.14978	1023.15192	571.24481	1662.33887	876.56897	558.10278	1652.84912	1019.77374	512.4447	1515.15027	961.54993	483.16205	1233.98108	972.57104	657.63904	1459.34839	947.02924	726.67609	1295.21973	969.26642	470.25095	1337.3147	1035.21179	571.92157	1482.18152	780.69592	563.93268	1278.88049	703.31696	569.68274	1138.25037	692.75568	592.52863	1008.495	677.12994	665.24261	890.49927	695.37854	613.802	887.77942	672.57416	639.46057	827.77887	662.21027	596.72504	1499.69849	1145.64282	605.75098	1307.67444	1236.10449	653.97363	1168.26111	1256.76343	714.87408	1063.87817	1274.21802	792.25519	953.18475	1249.3678	754.20593	940.54468	1289.52673	805.10211	886.99756	1283.62585	748.29889	993.72961	852.41687	719.43134	970.52625	1104.98352	528.3031	1025.78845	905.43231	510.69028	1019.79846	1019.31372	720.0257	679.67224	795.37659	702.44379	475.33069	833.04382	656.9588	284.2995	840.04041	667.91522	65.41859	888.44769	633.94489	38.51999	943.01019	824.42957	29.75842	874.7002	625.87262	667.80621	1186.71423	627.72119	468.90921	1189.39636	479.65479	360.42627	1174.31262	346.01022	226.54532	1126.16162	304.70328	200.51663	1056.42957	397.19461	79.5536	1173.90491	614.87311	1804.77173	965.08844	NaN	NaN	NaN	NaN	NaN	NaN	NaN	NaN	NaN	NaN	NaN	NaN	NaN	NaN	NaN	NaN	NaN	NaN	NaN	NaN	NaN	NaN	NaN	NaN	NaN	NaN	NaN	NaN	NaN	NaN
161	1.6	717.4624	1724.70508	878.8075	716.83032	1715.30286	1021.98022	579.59082	1663.87598	876.2157	566.91028	1653.75867	1018.64337	521.06409	1516.68726	960.1441	491.51239	1235.23279	970.02338	666.21326	1460.29932	945.94995	734.83984	1295.88794	968.00977	478.03165	1338.56396	1033.23901	581.57056	1483.92249	779.25482	576.29517	1280.7124	700.97522	584.35236	1140.16895	689.46686	611.05859	1010.7793	674.52637	687.34204	895.57959	693.58203	636.38165	890.83429	670.40784	664.20215	832.05267	659.95233	604.57898	1500.18164	1144.33081	612.3064	1307.77698	1234.29419	659.94775	1168.29382	1255.43469	719.43927	1063.26843	1272.92993	795.63501	951.4259	1248.55396	757.42401	939.51813	1288.76697	807.31287	884.88782	1282.7981	755.99219	993.271	850.95453	726.9408	972.12262	1103.94434	535.98907	1026.99585	903.45374	518.21741	1021.15466	1017.15143	724.39014	679.36139	794.30182	704.1026	475.21902	832.31598	656.90051	284.63611	840.16986	667.90009	65.48566	888.59125	633.93921	38.53189	943.0498	824.42493	29.6904	874.64948	639.63831	669.44812	1186.85059	644.41064	470.77023	1189.14917	497.37009	361.4552	1173.12305	366.01578	225.6149	1124.88257	325.31241	197.36382	1055.23828	419.23782	81.46503	1177.22998	623.51013	1805.71191	963.84058	NaN	NaN	NaN	NaN	NaN	NaN	NaN	NaN	NaN	NaN	NaN	NaN	NaN	NaN	NaN	NaN	NaN	NaN	NaN	NaN	NaN	NaN	NaN	NaN	NaN	NaN	NaN	NaN	NaN	NaN
